<svg width="25" height="24" viewBox="0 0 25 24" fill="none" xmlns="http://www.w3.org/2000/svg">
<g id="logo-docker">
<path id="Vector" d="M23.61 10.2548C23.0216 9.85871 21.4755 9.68956 20.3514 9.99231C20.2908 8.87269 19.7135 7.9292 18.6574 7.10599L18.2664 6.84354L18.0058 7.23705C17.4936 8.01457 17.2778 9.05041 17.3543 9.992C17.4146 10.5721 17.6164 11.2243 18.0058 11.6975C16.5428 12.5461 15.1944 12.3534 9.22245 12.3534H0.00207C-0.024905 13.7019 0.191847 16.2959 1.84145 18.4076C2.02361 18.6408 2.22354 18.8665 2.44029 19.0838C3.78143 20.4269 5.80773 21.4116 8.83782 21.4145C13.4604 21.4186 17.421 18.9201 19.83 12.8786C20.6227 12.8917 22.7154 13.0208 23.7395 11.0418C23.7645 11.0085 24 10.5169 24 10.5169L23.6097 10.2544L23.61 10.2548ZM6.0194 9.02153H3.42663V11.6143H6.0194V9.02153ZM9.36907 9.02153H6.77629V11.6143H9.36907V9.02153ZM12.7187 9.02153H10.126V11.6143H12.7187V9.02153ZM16.0684 9.02153H13.4756V11.6143H16.0684V9.02153ZM2.66974 9.02153H0.0769653V11.6143H2.66974V9.02153ZM6.0194 5.74676H3.42663V8.33954H6.0194V5.74676ZM9.36907 5.74676H6.77629V8.33954H9.36907V5.74676ZM12.7187 5.74676H10.126V8.33954H12.7187V5.74676ZM12.7187 2.47168H10.126V5.06445H12.7187V2.47168Z" fill="#1D63ED"/>
</g>
</svg>
